<?xml version="1.0" standalone="no"?>
<!DOCTYPE svg PUBLIC "-//W3C//DTD SVG 20010904//EN"
 "http://www.w3.org/TR/2001/REC-SVG-20010904/DTD/svg10.dtd">
<svg version="1.0" xmlns="http://www.w3.org/2000/svg"
 width="272.000000pt" height="272.000000pt" viewBox="0 0 272.000000 272.000000"
 preserveAspectRatio="xMidYMid meet">
<metadata>
Created by potrace 1.11, written by Peter Selinger 2001-2013
</metadata>
<g transform="translate(0.000000,272.000000) scale(0.100000,-0.100000)"
fill="#000000" stroke="none">
<path d="M1899 2600 c-4 -133 -2 -704 3 -712 7 -12 712 -18 731 -6 9 5 12 108
12 373 l0 365 -25 1 c-14 0 -181 1 -373 2 l-347 2 -1 -25z"/>
<path d="M990 1340 l0 -375 343 2 c188 1 356 2 372 2 l30 1 -1 363 c-1 199 -2
367 -3 372 -1 7 -131 10 -371 10 l-370 0 0 -375z"/>
<path d="M1903 1706 c-10 -15 -9 -727 0 -733 6 -4 580 -7 717 -4 l25 1 0 372
0 373 -368 0 c-218 0 -371 -4 -374 -9z"/>
<path d="M82 431 l3 -374 361 0 c199 0 365 3 370 6 7 4 12 683 5 732 -1 7
-129 10 -371 10 l-370 1 2 -375z"/>
<path d="M992 431 l3 -374 360 1 c198 0 365 1 370 1 7 1 10 128 9 369 -1 202
-2 369 -3 372 0 3 -168 5 -371 5 l-370 0 2 -374z"/>
<path d="M1899 790 c-4 -79 -1 -722 4 -727 9 -8 720 -9 733 -1 5 4 9 160 9
375 l0 368 -373 0 c-327 1 -372 -1 -373 -15z"/>
</g>
</svg>
